<svg xmlns="http://www.w3.org/2000/svg" xmlns:xlink="http://www.w3.org/1999/xlink" version="1.1" data-diagram-type="CLASS" style="width:612px;height:607px;background:#FFFFFF;" width="612px" height="607px" viewBox="0 0 612 607" zoomAndPan="magnify" preserveAspectRatio="none" contentStyleType="text/css"><?plantuml 1.2026.7beta8?><defs/><g font-family="sans-serif" lengthAdjust="spacing"><g class="title" data-source-line="1"><text x="230.856" y="22.995" fill="#000" font-size="14" textLength="143.609" font-weight="700">Anti-fraud Service</text></g><!--class FraudCheck--><g class="entity" data-qualified-name="FraudCheck" id="ent0001" data-source-line="3"><rect x="173.48" y="44.297" width="270.747" height="243.563" fill="#F1F1F1" style="stroke:#181818;stroke-width:0.5;" rx="2.5" ry="2.5"/><ellipse cx="262.997" cy="60.297" rx="11" ry="11" fill="#ADD1B2" style="stroke:#181818;stroke-width:1;"/><path d="M265.965,65.938 Q265.387,66.234 264.747,66.375 Q264.106,66.531 263.403,66.531 Q260.903,66.531 259.575,64.891 Q258.262,63.234 258.262,60.109 Q258.262,56.984 259.575,55.328 Q260.903,53.672 263.403,53.672 Q264.106,53.672 264.747,53.828 Q265.403,53.984 265.965,54.281 L265.965,57 Q265.34,56.422 264.747,56.156 Q264.153,55.875 263.528,55.875 Q262.184,55.875 261.497,56.953 Q260.809,58.016 260.809,60.109 Q260.809,62.203 261.497,63.281 Q262.184,64.344 263.528,64.344 Q264.153,64.344 264.747,64.078 Q265.34,63.797 265.965,63.219 L265.965,65.938 Z " fill="#000"/><text x="283.497" y="65.144" fill="#000" font-size="14" textLength="83.214">FraudCheck</text><line x1="174.48" y1="76.297" x2="443.227" y2="76.297" style="stroke:#181818;stroke-width:0.5;"/><text x="179.48" y="93.292" fill="#000" font-size="14" textLength="87.555">_id: ObjectId</text><text x="179.48" y="109.589" fill="#000" font-size="14" textLength="105.335">check_id: UUID</text><text x="179.48" y="125.886" fill="#000" font-size="14" textLength="93.967">status: String</text><text x="179.48" y="142.183" fill="#000" font-size="14" textLength="116.286">risk_level: String</text><text x="179.48" y="158.479" fill="#000" font-size="14" textLength="150.083">rules_decision: String</text><text x="179.48" y="174.776" fill="#000" font-size="14" textLength="186.457">automatic_decision: String</text><text x="179.48" y="191.073" fill="#000" font-size="14" textLength="145.817">final_decision: String</text><text x="179.48" y="207.37" fill="#000" font-size="14" textLength="117.332">created_at: Date</text><text x="179.48" y="223.667" fill="#000" font-size="14" textLength="137.977">completed_at: Date</text><text x="179.48" y="239.964" fill="#000" font-size="14" textLength="170.399">transaction: Transaction</text><text x="179.48" y="256.261" fill="#000" font-size="14" textLength="258.747">manual_review: ManualReview [0..1]</text><text x="179.48" y="272.558" fill="#000" font-size="14" textLength="199.049">fraud_rules: FraudRule [1..*]</text><line x1="174.48" y1="279.859" x2="443.227" y2="279.859" style="stroke:#181818;stroke-width:0.5;"/></g><!--class Transaction--><g class="entity" data-qualified-name="Transaction" id="ent0002" data-source-line="18"><rect x="7" y="364.857" width="187.711" height="227.266" fill="#F1F1F1" style="stroke:#181818;stroke-width:0.5;" rx="2.5" ry="2.5"/><ellipse cx="55.532" cy="380.857" rx="11" ry="11" fill="#ADD1B2" style="stroke:#181818;stroke-width:1;"/><path d="M58.5,386.498 Q57.922,386.794 57.282,386.935 Q56.641,387.091 55.938,387.091 Q53.438,387.091 52.11,385.451 Q50.797,383.794 50.797,380.669 Q50.797,377.544 52.11,375.888 Q53.438,374.232 55.938,374.232 Q56.641,374.232 57.282,374.388 Q57.938,374.544 58.5,374.841 L58.5,377.56 Q57.875,376.982 57.282,376.716 Q56.688,376.435 56.063,376.435 Q54.719,376.435 54.032,377.513 Q53.344,378.576 53.344,380.669 Q53.344,382.763 54.032,383.841 Q54.719,384.904 56.063,384.904 Q56.688,384.904 57.282,384.638 Q57.875,384.357 58.5,383.779 L58.5,386.498 Z " fill="#000"/><text x="76.032" y="385.704" fill="#000" font-size="14" textLength="82.147">Transaction</text><line x1="8" y1="396.857" x2="193.711" y2="396.857" style="stroke:#181818;stroke-width:0.5;"/><text x="13" y="413.852" fill="#000" font-size="14" textLength="143.432">transaction_id: UUID</text><text x="13" y="430.149" fill="#000" font-size="14" textLength="161.759">sender_account: String</text><text x="13" y="446.446" fill="#000" font-size="14" textLength="175.431">recipient_account: String</text><text x="13" y="462.743" fill="#000" font-size="14" textLength="146.993">amount: Decimal128</text><text x="13" y="479.039" fill="#000" font-size="14" textLength="112.499">currency: String</text><text x="13" y="495.336" fill="#000" font-size="14" textLength="160.282">transaction_date: Date</text><text x="13" y="511.633" fill="#000" font-size="14" textLength="126.034">ip_address: String</text><text x="13" y="527.93" fill="#000" font-size="14" textLength="151.348">origin_country: String</text><text x="13" y="544.227" fill="#000" font-size="14" textLength="116.71">device_id: String</text><text x="13" y="560.524" fill="#000" font-size="14" textLength="175.711">payment_channel: String</text><text x="13" y="576.821" fill="#000" font-size="14" textLength="84.52">tariff: String</text><line x1="8" y1="584.123" x2="193.711" y2="584.123" style="stroke:#181818;stroke-width:0.5;"/></g><!--class ManualReview--><g class="entity" data-qualified-name="ManualReview" id="ent0003" data-source-line="32"><rect x="229.95" y="405.607" width="157.817" height="145.781" fill="#F1F1F1" style="stroke:#181818;stroke-width:0.5;" rx="2.5" ry="2.5"/><ellipse cx="255.914" cy="421.607" rx="11" ry="11" fill="#ADD1B2" style="stroke:#181818;stroke-width:1;"/><path d="M258.883,427.248 Q258.305,427.544 257.664,427.685 Q257.024,427.841 256.321,427.841 Q253.821,427.841 252.492,426.201 Q251.18,424.544 251.18,421.419 Q251.18,418.294 252.492,416.638 Q253.821,414.982 256.321,414.982 Q257.024,414.982 257.664,415.138 Q258.321,415.294 258.883,415.591 L258.883,418.31 Q258.258,417.732 257.664,417.466 Q257.071,417.185 256.446,417.185 Q255.102,417.185 254.414,418.263 Q253.727,419.326 253.727,421.419 Q253.727,423.513 254.414,424.591 Q255.102,425.654 256.446,425.654 Q257.071,425.654 257.664,425.388 Q258.258,425.107 258.883,424.529 L258.883,427.248 Z " fill="#000"/><text x="272.351" y="426.454" fill="#000" font-size="14" textLength="101.452">ManualReview</text><line x1="230.95" y1="437.607" x2="386.767" y2="437.607" style="stroke:#181818;stroke-width:0.5;"/><text x="235.95" y="454.602" fill="#000" font-size="14" textLength="110.954">review_id: UUID</text><text x="235.95" y="470.899" fill="#000" font-size="14" textLength="120.36">mr_status: String</text><text x="235.95" y="487.196" fill="#000" font-size="14" textLength="117.462">comment: String</text><text x="235.95" y="503.493" fill="#000" font-size="14" textLength="145.817">final_decision: String</text><text x="235.95" y="519.789" fill="#000" font-size="14" textLength="117.332">created_at: Date</text><text x="235.95" y="536.086" fill="#000" font-size="14" textLength="137.977">completed_at: Date</text><line x1="230.95" y1="543.388" x2="386.767" y2="543.388" style="stroke:#181818;stroke-width:0.5;"/></g><!--class FraudRule--><g class="entity" data-qualified-name="FraudRule" id="ent0004" data-source-line="41"><rect x="422.4" y="397.457" width="174.921" height="162.078" fill="#F1F1F1" style="stroke:#181818;stroke-width:0.5;" rx="2.5" ry="2.5"/><ellipse cx="469.985" cy="413.457" rx="11" ry="11" fill="#ADD1B2" style="stroke:#181818;stroke-width:1;"/><path d="M472.954,419.098 Q472.376,419.394 471.735,419.535 Q471.094,419.691 470.391,419.691 Q467.891,419.691 466.563,418.051 Q465.251,416.394 465.251,413.269 Q465.251,410.144 466.563,408.488 Q467.891,406.832 470.391,406.832 Q471.094,406.832 471.735,406.988 Q472.391,407.144 472.954,407.441 L472.954,410.16 Q472.329,409.582 471.735,409.316 Q471.141,409.035 470.516,409.035 Q469.172,409.035 468.485,410.113 Q467.797,411.176 467.797,413.269 Q467.797,415.363 468.485,416.441 Q469.172,417.504 470.516,417.504 Q471.141,417.504 471.735,417.238 Q472.329,416.957 472.954,416.379 L472.954,419.098 Z " fill="#000"/><text x="490.485" y="418.304" fill="#000" font-size="14" textLength="71.251">FraudRule</text><line x1="423.4" y1="429.457" x2="596.321" y2="429.457" style="stroke:#181818;stroke-width:0.5;"/><text x="428.4" y="446.452" fill="#000" font-size="14" textLength="87.555">_id: ObjectId</text><text x="428.4" y="462.749" fill="#000" font-size="14" textLength="91.479">rule_id: UUID</text><text x="428.4" y="479.046" fill="#000" font-size="14" textLength="124.783">rule_name: String</text><text x="428.4" y="495.343" fill="#000" font-size="14" textLength="162.921">rule_description: String</text><text x="428.4" y="511.639" fill="#000" font-size="14" textLength="126.595">is_active: Boolean</text><text x="428.4" y="527.936" fill="#000" font-size="14" textLength="117.332">created_at: Date</text><text x="428.4" y="544.233" fill="#000" font-size="14" textLength="121.912">updated_at: Date</text><line x1="423.4" y1="551.535" x2="596.321" y2="551.535" style="stroke:#181818;stroke-width:0.5;"/></g><!--reverse link FraudCheck to Transaction--><g class="link" data-entity-1="ent0001" data-entity-2="ent0002" id="lnk5" data-source-line="51" data-link-type="composition"><path d="M221.16,297.956 C204.28,323.146 193.23,339.637 176.55,364.537" style="stroke:#181818;stroke-width:1;" fill="none" id="FraudCheck-backto-Transaction" codeLine="51"/><polygon points="227.84,287.987,221.177,290.745,221.16,297.956,227.823,295.198,227.84,287.987" fill="#181818" style="stroke:#181818;stroke-width:1;stroke-linejoin:miter;stroke-miterlimit:10;"/><text x="205.86" y="330.924" fill="#000" font-size="13" textLength="55.028">contains</text><text x="173.152" y="353.827" fill="#000" font-size="13">1</text></g><!--reverse link FraudCheck to ManualReview--><g class="link" data-entity-1="ent0001" data-entity-2="ent0003" id="lnk6" data-source-line="52" data-link-type="composition"><path d="M308.86,299.987 C308.86,339.647 308.86,370.457 308.86,405.337" style="stroke:#181818;stroke-width:1;" fill="none" id="FraudCheck-backto-ManualReview" codeLine="52"/><polygon points="308.86,287.987,304.86,293.987,308.86,299.987,312.86,293.987,308.86,287.987" fill="#181818" style="stroke:#181818;stroke-width:1;stroke-linejoin:miter;stroke-miterlimit:10;"/><text x="309.86" y="330.924" fill="#000" font-size="13" textLength="55.028">contains</text><text x="283.719" y="394.47" fill="#000" font-size="13" textLength="24.807">0..1</text></g><!--reverse link FraudCheck to FraudRule--><g class="link" data-entity-1="ent0001" data-entity-2="ent0004" id="lnk7" data-source-line="53" data-link-type="aggregation"><path d="M393.662,298.06 C417.362,334.66 436.28,363.867 457.81,397.117" style="stroke:#181818;stroke-width:1;" fill="none" id="FraudCheck-backto-FraudRule" codeLine="53"/><polygon points="387.14,287.987,387.044,295.197,393.662,298.06,393.759,290.849,387.14,287.987" fill="none" style="stroke:#181818;stroke-width:1;stroke-linejoin:miter;stroke-miterlimit:10;"/><text x="415.86" y="330.924" fill="#000" font-size="13" textLength="55.028">contains</text><text x="429.152" y="386.274" fill="#000" font-size="13" textLength="23.036">1..*</text></g><?plantuml-src hLDBJyCm3BxlLqGxJjh4EA7UW0c90qBYSK8eCeatp5AtIjmXXFZl92cFPYitUee_ktvy_Yma3jKf2ytN7ZghRj7loE1aOXo4e2uIUFwCPglU9of-ccobhfzUqCYbpOX9tWpVtr-kCXG4f0kLkXLFlCcGfx3L3dVeIhXp6BH5Gu4QBbpGILE3a1bthud1ZRkCHn2q6gHIg_ZgmQPk7Hx0ue436CavxdwDxAo1krZ4uuxmjL9NsRp9bdeuMYoMZwhl9R6ayonLJzbDVAk7vM8nUvnyV9CvIF_5vg3w7eF85hq6OvgEfQGiZjmIienweUwXLOogmIsFJ_hfE--HpLiHEwnk8o43MgZLOAt7K6wnyRGXrhciBvDPJBh9KmpG5jxgrAfv1kQztGjuMgz_e1-Q2fhVlsPEHabHxVM8pkAQKy7_bif7SH1vkt_TGv91sMb666eya7viAXXFhUptHK6dnUpYBsTDun3uxtQxri9-iuExdStdQhgS5kghuemiG1mE8fEif-KEngERd3SgV3eWvJVq4m00?></g></svg>