<svg xmlns="http://www.w3.org/2000/svg" xmlns:xlink="http://www.w3.org/1999/xlink" version="1.1" data-diagram-type="CLASS" style="width:612px;height:574px;background:#FFFFFF;" width="612px" height="574px" viewBox="0 0 612 574" zoomAndPan="magnify" preserveAspectRatio="none" contentStyleType="text/css"><?plantuml 1.2026.7beta8?><defs/><g font-family="sans-serif" lengthAdjust="spacing"><g class="title" data-source-line="1"><text x="230.856" y="22.995" fill="#000" font-size="14" textLength="143.609" font-weight="700">Anti-fraud Service</text></g><!--class fraud_check--><g class="entity" data-qualified-name="fraud_check" id="ent0001" data-source-line="3"><rect x="209.63" y="44.297" width="198.457" height="210.969" fill="#F1F1F1" style="stroke:#181818;stroke-width:0.5;" rx="2.5" ry="2.5"/><ellipse cx="262.103" cy="60.297" rx="11" ry="11" fill="#ADD1B2" style="stroke:#181818;stroke-width:1;"/><path d="M265.071,65.938 Q264.493,66.234 263.853,66.375 Q263.212,66.531 262.509,66.531 Q260.009,66.531 258.681,64.891 Q257.368,63.234 257.368,60.109 Q257.368,56.984 258.681,55.328 Q260.009,53.672 262.509,53.672 Q263.212,53.672 263.853,53.828 Q264.509,53.984 265.071,54.281 L265.071,57 Q264.446,56.422 263.853,56.156 Q263.259,55.875 262.634,55.875 Q261.29,55.875 260.603,56.953 Q259.915,58.016 259.915,60.109 Q259.915,62.203 260.603,63.281 Q261.29,64.344 262.634,64.344 Q263.259,64.344 263.853,64.078 Q264.446,63.797 265.071,63.219 L265.071,65.938 Z " fill="#000"/><text x="282.603" y="65.144" fill="#000" font-size="14" textLength="85.012">fraud_check</text><line x1="210.63" y1="76.297" x2="407.087" y2="76.297" style="stroke:#181818;stroke-width:0.5;"/><text x="215.63" y="93.292" fill="#000" font-size="14" textLength="87.555">_id: ObjectId</text><text x="215.63" y="109.589" fill="#000" font-size="14" textLength="105.335">check_id: UUID</text><text x="215.63" y="125.886" fill="#000" font-size="14" textLength="93.967">status: String</text><text x="215.63" y="142.183" fill="#000" font-size="14" textLength="116.286">risk_level: String</text><text x="215.63" y="158.479" fill="#000" font-size="14" textLength="150.083">rules_decision: String</text><text x="215.63" y="174.776" fill="#000" font-size="14" textLength="186.457">automatic_decision: String</text><text x="215.63" y="191.073" fill="#000" font-size="14" textLength="145.817">final_decision: String</text><text x="215.63" y="207.37" fill="#000" font-size="14" textLength="117.332">created_at: Date</text><text x="215.63" y="223.667" fill="#000" font-size="14" textLength="137.977">completed_at: Date</text><text x="215.63" y="239.964" fill="#000" font-size="14" textLength="118.597">rule_ids: UUID [ ]</text><line x1="210.63" y1="247.266" x2="407.087" y2="247.266" style="stroke:#181818;stroke-width:0.5;"/></g><!--class transaction--><g class="entity" data-qualified-name="transaction" id="ent0002" data-source-line="16"><rect x="7" y="332.257" width="187.711" height="227.266" fill="#F1F1F1" style="stroke:#181818;stroke-width:0.5;" rx="2.5" ry="2.5"/><ellipse cx="57.063" cy="348.257" rx="11" ry="11" fill="#ADD1B2" style="stroke:#181818;stroke-width:1;"/><path d="M60.032,353.898 Q59.454,354.194 58.813,354.335 Q58.172,354.491 57.469,354.491 Q54.969,354.491 53.641,352.851 Q52.329,351.194 52.329,348.069 Q52.329,344.944 53.641,343.288 Q54.969,341.632 57.469,341.632 Q58.172,341.632 58.813,341.788 Q59.469,341.944 60.032,342.241 L60.032,344.96 Q59.407,344.382 58.813,344.116 Q58.219,343.835 57.594,343.835 Q56.25,343.835 55.563,344.913 Q54.875,345.976 54.875,348.069 Q54.875,350.163 55.563,351.241 Q56.25,352.304 57.594,352.304 Q58.219,352.304 58.813,352.038 Q59.407,351.757 60.032,351.179 L60.032,353.898 Z " fill="#000"/><text x="77.563" y="353.104" fill="#000" font-size="14" textLength="79.085">transaction</text><line x1="8" y1="364.257" x2="193.711" y2="364.257" style="stroke:#181818;stroke-width:0.5;"/><text x="13" y="381.252" fill="#000" font-size="14" textLength="143.432">transaction_id: UUID</text><text x="13" y="397.549" fill="#000" font-size="14" textLength="161.759">sender_account: String</text><text x="13" y="413.846" fill="#000" font-size="14" textLength="175.431">recipient_account: String</text><text x="13" y="430.143" fill="#000" font-size="14" textLength="146.993">amount: Decimal128</text><text x="13" y="446.439" fill="#000" font-size="14" textLength="112.499">currency: String</text><text x="13" y="462.736" fill="#000" font-size="14" textLength="160.282">transaction_date: Date</text><text x="13" y="479.033" fill="#000" font-size="14" textLength="126.034">ip_address: String</text><text x="13" y="495.33" fill="#000" font-size="14" textLength="151.348">origin_country: String</text><text x="13" y="511.627" fill="#000" font-size="14" textLength="116.71">device_id: String</text><text x="13" y="527.924" fill="#000" font-size="14" textLength="175.711">payment_channel: String</text><text x="13" y="544.221" fill="#000" font-size="14" textLength="84.52">tariff: String</text><line x1="8" y1="551.523" x2="193.711" y2="551.523" style="stroke:#181818;stroke-width:0.5;"/></g><!--class manual_review--><g class="entity" data-qualified-name="manual_review" id="ent0003" data-source-line="30"><rect x="229.95" y="373.007" width="157.817" height="145.781" fill="#F1F1F1" style="stroke:#181818;stroke-width:0.5;" rx="2.5" ry="2.5"/><ellipse cx="253.85" cy="389.007" rx="11" ry="11" fill="#ADD1B2" style="stroke:#181818;stroke-width:1;"/><path d="M256.819,394.648 Q256.241,394.944 255.6,395.085 Q254.96,395.241 254.256,395.241 Q251.756,395.241 250.428,393.601 Q249.116,391.944 249.116,388.819 Q249.116,385.694 250.428,384.038 Q251.756,382.382 254.256,382.382 Q254.96,382.382 255.6,382.538 Q256.256,382.694 256.819,382.991 L256.819,385.71 Q256.194,385.132 255.6,384.866 Q255.006,384.585 254.381,384.585 Q253.038,384.585 252.35,385.663 Q251.663,386.726 251.663,388.819 Q251.663,390.913 252.35,391.991 Q253.038,393.054 254.381,393.054 Q255.006,393.054 255.6,392.788 Q256.194,392.507 256.819,391.929 L256.819,394.648 Z " fill="#000"/><text x="269.828" y="393.854" fill="#000" font-size="14" textLength="106.039">manual_review</text><line x1="230.95" y1="405.007" x2="386.767" y2="405.007" style="stroke:#181818;stroke-width:0.5;"/><text x="235.95" y="422.002" fill="#000" font-size="14" textLength="110.954">review_id: UUID</text><text x="235.95" y="438.299" fill="#000" font-size="14" textLength="120.36">mr_status: String</text><text x="235.95" y="454.596" fill="#000" font-size="14" textLength="117.462">comment: String</text><text x="235.95" y="470.893" fill="#000" font-size="14" textLength="145.817">final_decision: String</text><text x="235.95" y="487.189" fill="#000" font-size="14" textLength="117.332">created_at: Date</text><text x="235.95" y="503.486" fill="#000" font-size="14" textLength="137.977">completed_at: Date</text><line x1="230.95" y1="510.788" x2="386.767" y2="510.788" style="stroke:#181818;stroke-width:0.5;"/></g><!--class fraud_rule--><g class="entity" data-qualified-name="fraud_rule" id="ent0004" data-source-line="39"><rect x="422.4" y="364.857" width="174.921" height="162.078" fill="#F1F1F1" style="stroke:#181818;stroke-width:0.5;" rx="2.5" ry="2.5"/><ellipse cx="470.033" cy="380.857" rx="11" ry="11" fill="#ADD1B2" style="stroke:#181818;stroke-width:1;"/><path d="M473.002,386.498 Q472.423,386.794 471.783,386.935 Q471.142,387.091 470.439,387.091 Q467.939,387.091 466.611,385.451 Q465.298,383.794 465.298,380.669 Q465.298,377.544 466.611,375.888 Q467.939,374.232 470.439,374.232 Q471.142,374.232 471.783,374.388 Q472.439,374.544 473.002,374.841 L473.002,377.56 Q472.377,376.982 471.783,376.716 Q471.189,376.435 470.564,376.435 Q469.22,376.435 468.533,377.513 Q467.845,378.576 467.845,380.669 Q467.845,382.763 468.533,383.841 Q469.22,384.904 470.564,384.904 Q471.189,384.904 471.783,384.638 Q472.377,384.357 473.002,383.779 L473.002,386.498 Z " fill="#000"/><text x="490.533" y="385.704" fill="#000" font-size="14" textLength="71.155">fraud_rule</text><line x1="423.4" y1="396.857" x2="596.321" y2="396.857" style="stroke:#181818;stroke-width:0.5;"/><text x="428.4" y="413.852" fill="#000" font-size="14" textLength="87.555">_id: ObjectId</text><text x="428.4" y="430.149" fill="#000" font-size="14" textLength="91.479">rule_id: UUID</text><text x="428.4" y="446.446" fill="#000" font-size="14" textLength="124.783">rule_name: String</text><text x="428.4" y="462.743" fill="#000" font-size="14" textLength="162.921">rule_description: String</text><text x="428.4" y="479.039" fill="#000" font-size="14" textLength="126.595">is_active: Boolean</text><text x="428.4" y="495.336" fill="#000" font-size="14" textLength="117.332">created_at: Date</text><text x="428.4" y="511.633" fill="#000" font-size="14" textLength="121.912">updated_at: Date</text><line x1="423.4" y1="518.935" x2="596.321" y2="518.935" style="stroke:#181818;stroke-width:0.5;"/></g><!--reverse link fraud_check to transaction--><g class="link" data-entity-1="ent0001" data-entity-2="ent0002" id="lnk5" data-source-line="49" data-link-type="composition"><path d="M227.711,265.514 C210.271,290.174 198.54,306.767 180.86,331.777" style="stroke:#181818;stroke-width:1;" fill="none" id="fraud_check-backto-transaction" codeLine="49"/><polygon points="234.64,255.717,227.91,258.306,227.711,265.514,234.441,262.925,234.64,255.717" fill="#181818" style="stroke:#181818;stroke-width:1;stroke-linejoin:miter;stroke-miterlimit:10;"/><text x="212.86" y="298.324" fill="#000" font-size="13" textLength="55.028">contains</text><text x="221.394" y="275.41" fill="#000" font-size="13">1</text><text x="177.738" y="321.057" fill="#000" font-size="13">1</text></g><!--reverse link fraud_check to manual_review--><g class="link" data-entity-1="ent0001" data-entity-2="ent0003" id="lnk6" data-source-line="51" data-link-type="composition"><path d="M308.86,267.717 C308.86,306.487 308.86,337.517 308.86,372.737" style="stroke:#181818;stroke-width:1;" fill="none" id="fraud_check-backto-manual_review" codeLine="51"/><polygon points="308.86,255.717,304.86,261.717,308.86,267.717,312.86,261.717,308.86,255.717" fill="#181818" style="stroke:#181818;stroke-width:1;stroke-linejoin:miter;stroke-miterlimit:10;"/><text x="309.86" y="298.324" fill="#000" font-size="13" textLength="55.028">contains</text><text x="300.6" y="275.41" fill="#000" font-size="13">1</text><text x="283.719" y="361.87" fill="#000" font-size="13" textLength="24.807">0..1</text></g><!--link fraud_check to fraud_rule--><g class="link" data-entity-1="ent0001" data-entity-2="ent0004" id="lnk7" data-source-line="53" data-link-type="dependency"><path d="M380.57,255.717 C405.03,291.517 429.169,326.818 452.099,360.378" style="stroke:#181818;stroke-width:1;" fill="none" id="fraud_check-to-fraud_rule" codeLine="53"/><polygon points="454.92,364.507,453.145,354.819,452.099,360.378,446.54,359.332,454.92,364.507" fill="#181818" style="stroke:#181818;stroke-width:1;stroke-linejoin:miter;stroke-miterlimit:10;"/><text x="410.86" y="298.324" fill="#000" font-size="13" textLength="69.418">references</text><text x="377.128" y="275.41" fill="#000" font-size="13">1</text><text x="426.004" y="353.663" fill="#000" font-size="13" textLength="23.036">0..*</text></g><?plantuml-src hLEnJiGm3Dtx5T6D9nK14-g01Bhb9WPq4qAHILmmbxfLuXv2Y7ydJG_Kb1uJNPe-n_PxVgwGE5GtB5JM7dghxj4Vo61H60SXg0Hgyu9chpuA5HzDjb9tJwzeP6iJag89tksscmG50Ub3fUx54pydo5FOQuS7T3dSEmpQeg50BMSXwALjGCWiXsjYSCiXun44hGQfr2QUHh1jEeU_u85091z6zkf1FHQVt-h50mSm4kiVrK-GcM9aYrw3CMtFaakC53j2biKeD2EqYRSQS1UNLoFRtdjayvxTdNQtKS141dKQhFKOygctdfw9TMhhys8M1wEJYWdQmNipK3Klm3ppIi1JNVz0FsDgWFjeXOy5yUqugF4Zdr7ZzS9YH5-6Zl_jxMU-meFD9pVuk0CJgWbXQF3NiaPMmNZgP4wCWXwiESIKsxPr27oQRzzPcBET_cghYvLQbsLwJqoleb0M80udhf-VdSLZviTVEMLvdNBMgycKgkXTZSFoOVW2?></g></svg>