<svg xmlns="http://www.w3.org/2000/svg" xmlns:xlink="http://www.w3.org/1999/xlink" version="1.1" data-diagram-type="CLASS" style="width:612px;height:569px;background:#FFFFFF;" width="612px" height="569px" viewBox="0 0 612 569" zoomAndPan="magnify" preserveAspectRatio="none" contentStyleType="text/css"><?plantuml 1.2026.7beta8?><defs/><g font-family="sans-serif" lengthAdjust="spacing"><!--class FraudCheck--><g class="entity" data-qualified-name="FraudCheck" id="ent0001" data-source-line="1"><rect x="173.48" y="7" width="270.747" height="243.563" fill="#F1F1F1" style="stroke:#181818;stroke-width:0.5;" rx="2.5" ry="2.5"/><ellipse cx="262.997" cy="23" rx="11" ry="11" fill="#ADD1B2" style="stroke:#181818;stroke-width:1;"/><path d="M265.965,28.641 Q265.387,28.938 264.747,29.078 Q264.106,29.234 263.403,29.234 Q260.903,29.234 259.575,27.594 Q258.262,25.938 258.262,22.813 Q258.262,19.688 259.575,18.031 Q260.903,16.375 263.403,16.375 Q264.106,16.375 264.747,16.531 Q265.403,16.688 265.965,16.984 L265.965,19.703 Q265.34,19.125 264.747,18.859 Q264.153,18.578 263.528,18.578 Q262.184,18.578 261.497,19.656 Q260.809,20.719 260.809,22.813 Q260.809,24.906 261.497,25.984 Q262.184,27.047 263.528,27.047 Q264.153,27.047 264.747,26.781 Q265.34,26.5 265.965,25.922 L265.965,28.641 Z " fill="#000"/><text x="283.497" y="27.847" fill="#000" font-size="14" textLength="83.214">FraudCheck</text><line x1="174.48" y1="39" x2="443.227" y2="39" style="stroke:#181818;stroke-width:0.5;"/><text x="179.48" y="55.995" fill="#000" font-size="14" textLength="87.555">_id: ObjectId</text><text x="179.48" y="72.292" fill="#000" font-size="14" textLength="105.335">check_id: UUID</text><text x="179.48" y="88.589" fill="#000" font-size="14" textLength="93.967">status: String</text><text x="179.48" y="104.886" fill="#000" font-size="14" textLength="116.286">risk_level: String</text><text x="179.48" y="121.183" fill="#000" font-size="14" textLength="150.083">rules_decision: String</text><text x="179.48" y="137.479" fill="#000" font-size="14" textLength="186.457">automatic_decision: String</text><text x="179.48" y="153.776" fill="#000" font-size="14" textLength="145.817">final_decision: String</text><text x="179.48" y="170.073" fill="#000" font-size="14" textLength="117.332">created_at: Date</text><text x="179.48" y="186.37" fill="#000" font-size="14" textLength="137.977">completed_at: Date</text><text x="179.48" y="202.667" fill="#000" font-size="14" textLength="170.399">transaction: Transaction</text><text x="179.48" y="218.964" fill="#000" font-size="14" textLength="258.747">manual_review: ManualReview [0..1]</text><text x="179.48" y="235.261" fill="#000" font-size="14" textLength="199.049">fraud_rules: FraudRule [0..*]</text><line x1="174.48" y1="242.563" x2="443.227" y2="242.563" style="stroke:#181818;stroke-width:0.5;"/></g><!--class Transaction--><g class="entity" data-qualified-name="Transaction" id="ent0002" data-source-line="16"><rect x="7" y="327.56" width="187.711" height="227.266" fill="#F1F1F1" style="stroke:#181818;stroke-width:0.5;" rx="2.5" ry="2.5"/><ellipse cx="55.532" cy="343.56" rx="11" ry="11" fill="#ADD1B2" style="stroke:#181818;stroke-width:1;"/><path d="M58.5,349.201 Q57.922,349.498 57.282,349.638 Q56.641,349.794 55.938,349.794 Q53.438,349.794 52.11,348.154 Q50.797,346.498 50.797,343.373 Q50.797,340.248 52.11,338.591 Q53.438,336.935 55.938,336.935 Q56.641,336.935 57.282,337.091 Q57.938,337.248 58.5,337.544 L58.5,340.263 Q57.875,339.685 57.282,339.419 Q56.688,339.138 56.063,339.138 Q54.719,339.138 54.032,340.216 Q53.344,341.279 53.344,343.373 Q53.344,345.466 54.032,346.544 Q54.719,347.607 56.063,347.607 Q56.688,347.607 57.282,347.341 Q57.875,347.06 58.5,346.482 L58.5,349.201 Z " fill="#000"/><text x="76.032" y="348.407" fill="#000" font-size="14" textLength="82.147">Transaction</text><line x1="8" y1="359.56" x2="193.711" y2="359.56" style="stroke:#181818;stroke-width:0.5;"/><text x="13" y="376.555" fill="#000" font-size="14" textLength="143.432">transaction_id: UUID</text><text x="13" y="392.852" fill="#000" font-size="14" textLength="161.759">sender_account: String</text><text x="13" y="409.149" fill="#000" font-size="14" textLength="175.431">recipient_account: String</text><text x="13" y="425.446" fill="#000" font-size="14" textLength="146.993">amount: Decimal128</text><text x="13" y="441.743" fill="#000" font-size="14" textLength="112.499">currency: String</text><text x="13" y="458.039" fill="#000" font-size="14" textLength="160.282">transaction_date: Date</text><text x="13" y="474.336" fill="#000" font-size="14" textLength="126.034">ip_address: String</text><text x="13" y="490.633" fill="#000" font-size="14" textLength="151.348">origin_country: String</text><text x="13" y="506.93" fill="#000" font-size="14" textLength="116.71">device_id: String</text><text x="13" y="523.227" fill="#000" font-size="14" textLength="175.711">payment_channel: String</text><text x="13" y="539.524" fill="#000" font-size="14" textLength="84.52">tariff: String</text><line x1="8" y1="546.826" x2="193.711" y2="546.826" style="stroke:#181818;stroke-width:0.5;"/></g><!--class ManualReview--><g class="entity" data-qualified-name="ManualReview" id="ent0003" data-source-line="30"><rect x="229.95" y="368.31" width="157.817" height="145.781" fill="#F1F1F1" style="stroke:#181818;stroke-width:0.5;" rx="2.5" ry="2.5"/><ellipse cx="255.914" cy="384.31" rx="11" ry="11" fill="#ADD1B2" style="stroke:#181818;stroke-width:1;"/><path d="M258.883,389.951 Q258.305,390.248 257.664,390.388 Q257.024,390.544 256.321,390.544 Q253.821,390.544 252.492,388.904 Q251.18,387.248 251.18,384.123 Q251.18,380.998 252.492,379.341 Q253.821,377.685 256.321,377.685 Q257.024,377.685 257.664,377.841 Q258.321,377.998 258.883,378.294 L258.883,381.013 Q258.258,380.435 257.664,380.169 Q257.071,379.888 256.446,379.888 Q255.102,379.888 254.414,380.966 Q253.727,382.029 253.727,384.123 Q253.727,386.216 254.414,387.294 Q255.102,388.357 256.446,388.357 Q257.071,388.357 257.664,388.091 Q258.258,387.81 258.883,387.232 L258.883,389.951 Z " fill="#000"/><text x="272.351" y="389.157" fill="#000" font-size="14" textLength="101.452">ManualReview</text><line x1="230.95" y1="400.31" x2="386.767" y2="400.31" style="stroke:#181818;stroke-width:0.5;"/><text x="235.95" y="417.305" fill="#000" font-size="14" textLength="110.954">review_id: UUID</text><text x="235.95" y="433.602" fill="#000" font-size="14" textLength="120.36">mr_status: String</text><text x="235.95" y="449.899" fill="#000" font-size="14" textLength="117.462">comment: String</text><text x="235.95" y="466.196" fill="#000" font-size="14" textLength="145.817">final_decision: String</text><text x="235.95" y="482.493" fill="#000" font-size="14" textLength="117.332">created_at: Date</text><text x="235.95" y="498.789" fill="#000" font-size="14" textLength="137.977">completed_at: Date</text><line x1="230.95" y1="506.091" x2="386.767" y2="506.091" style="stroke:#181818;stroke-width:0.5;"/></g><!--class FraudRule--><g class="entity" data-qualified-name="FraudRule" id="ent0004" data-source-line="39"><rect x="422.4" y="360.16" width="174.921" height="162.078" fill="#F1F1F1" style="stroke:#181818;stroke-width:0.5;" rx="2.5" ry="2.5"/><ellipse cx="469.985" cy="376.16" rx="11" ry="11" fill="#ADD1B2" style="stroke:#181818;stroke-width:1;"/><path d="M472.954,381.801 Q472.376,382.098 471.735,382.238 Q471.094,382.394 470.391,382.394 Q467.891,382.394 466.563,380.754 Q465.251,379.098 465.251,375.973 Q465.251,372.848 466.563,371.191 Q467.891,369.535 470.391,369.535 Q471.094,369.535 471.735,369.691 Q472.391,369.848 472.954,370.144 L472.954,372.863 Q472.329,372.285 471.735,372.019 Q471.141,371.738 470.516,371.738 Q469.172,371.738 468.485,372.816 Q467.797,373.879 467.797,375.973 Q467.797,378.066 468.485,379.144 Q469.172,380.207 470.516,380.207 Q471.141,380.207 471.735,379.941 Q472.329,379.66 472.954,379.082 L472.954,381.801 Z " fill="#000"/><text x="490.485" y="381.007" fill="#000" font-size="14" textLength="71.251">FraudRule</text><line x1="423.4" y1="392.16" x2="596.321" y2="392.16" style="stroke:#181818;stroke-width:0.5;"/><text x="428.4" y="409.155" fill="#000" font-size="14" textLength="87.555">_id: ObjectId</text><text x="428.4" y="425.452" fill="#000" font-size="14" textLength="91.479">rule_id: UUID</text><text x="428.4" y="441.749" fill="#000" font-size="14" textLength="124.783">rule_name: String</text><text x="428.4" y="458.046" fill="#000" font-size="14" textLength="162.921">rule_description: String</text><text x="428.4" y="474.343" fill="#000" font-size="14" textLength="126.595">is_active: Boolean</text><text x="428.4" y="490.639" fill="#000" font-size="14" textLength="117.332">created_at: Date</text><text x="428.4" y="506.936" fill="#000" font-size="14" textLength="121.912">updated_at: Date</text><line x1="423.4" y1="514.238" x2="596.321" y2="514.238" style="stroke:#181818;stroke-width:0.5;"/></g><!--reverse link FraudCheck to Transaction--><g class="link" data-entity-1="ent0001" data-entity-2="ent0002" id="lnk5" data-source-line="48" data-link-type="composition"><path d="M221.16,260.659 C204.28,285.849 193.23,302.34 176.55,327.24" style="stroke:#181818;stroke-width:1;" fill="none" id="FraudCheck-backto-Transaction" codeLine="48"/><polygon points="227.84,250.69,221.177,253.448,221.16,260.659,227.823,257.901,227.84,250.69" fill="#181818" style="stroke:#181818;stroke-width:1;stroke-linejoin:miter;stroke-miterlimit:10;"/><text x="205.86" y="293.627" fill="#000" font-size="13" textLength="55.028">contains</text><text x="173.152" y="316.531" fill="#000" font-size="13">1</text></g><!--reverse link FraudCheck to ManualReview--><g class="link" data-entity-1="ent0001" data-entity-2="ent0003" id="lnk6" data-source-line="49" data-link-type="composition"><path d="M308.86,262.69 C308.86,302.35 308.86,333.16 308.86,368.04" style="stroke:#181818;stroke-width:1;" fill="none" id="FraudCheck-backto-ManualReview" codeLine="49"/><polygon points="308.86,250.69,304.86,256.69,308.86,262.69,312.86,256.69,308.86,250.69" fill="#181818" style="stroke:#181818;stroke-width:1;stroke-linejoin:miter;stroke-miterlimit:10;"/><text x="309.86" y="293.627" fill="#000" font-size="13" textLength="55.028">contains</text><text x="283.719" y="357.173" fill="#000" font-size="13" textLength="24.807">0..1</text></g><!--reverse link FraudCheck to FraudRule--><g class="link" data-entity-1="ent0001" data-entity-2="ent0004" id="lnk7" data-source-line="50" data-link-type="aggregation"><path d="M393.662,260.763 C417.362,297.363 436.28,326.57 457.81,359.82" style="stroke:#181818;stroke-width:1;" fill="none" id="FraudCheck-backto-FraudRule" codeLine="50"/><polygon points="387.14,250.69,387.044,257.9,393.662,260.763,393.759,253.552,387.14,250.69" fill="none" style="stroke:#181818;stroke-width:1;stroke-linejoin:miter;stroke-miterlimit:10;"/><text x="415.86" y="293.627" fill="#000" font-size="13" textLength="55.028">contains</text><text x="429.152" y="348.977" fill="#000" font-size="13" textLength="23.036">0..*</text></g><?plantuml-src hLDDQyCm3BtdLvWS2othJYF7hGnw68DkFOrYD5jjlVeZ-AEZbFttsUv8d3R7tQJt5ElfIM4Id2FF5W9_sYCxa7D521My8Q-VNyZyaiUS9IQ3w_Lo4G7dmGVNa3TlXTv5m0fte1AFA4imI7IK8nDE65qG4BnHu0KR8xT2WnmZc4Nmo2duXYnYb22ZMebNeBUW7J2VltxlaqWfq24-Rl4eyBiXBpbTvOnytCrcyqqIaCoWMNnpSMOLuynFDjLFLR7iMV5oDgreEx0ADKTBWJ4Jj2_TYHEs0hKVuK1TW4MiKI3dzmzfs60jQdOgwigUF4xVUI1Q2fnRTEMIZ1KxeMbkPijdU7I0OLRTOIsSL1B7zg3rOAqUhDXkEw0pPE3cEK-Omj8CPUdDwSGTfaR_Tm6Te7vtOqUT5bngoxa6XLSN78KuPaNhXrg4eyduOon_D4OYw761eULm9Q_usoRJAQddTNbCJPn9Un3QtHIc2wq7FeyNcx_YITrxq5V-0W00?></g></svg>